<?xml version="1.0" encoding="UTF-8"?>
<svg width="84px" height="84px" viewBox="0 0 84 84" version="1.1" xmlns="http://www.w3.org/2000/svg" xmlns:xlink="http://www.w3.org/1999/xlink">
    <!-- Generator: Sketch 41 (35326) - http://www.bohemiancoding.com/sketch -->
    <title>overall_icons</title>
    <desc>Created with Sketch.</desc>
    <defs></defs>
    <g id="Page-1" stroke="none" stroke-width="1" fill="none" fill-rule="evenodd">
        <g id="Group-7">
            <g id="overall_users-copy" fill="#3E3E3E">
                <path d="M31.776678,30.2115286 L26.1096441,27.3971 C25.3782034,27.0329214 24.9154915,26.2898321 24.9154915,25.4766179 L24.9154915,23.267975 C25.0738814,23.0882429 25.2571864,22.8566536 25.4517627,22.583225 C26.2241356,21.5001179 26.8078644,20.3079929 27.2130339,19.0569393 C27.9391356,18.8347786 28.4748136,18.1677071 28.4748136,17.3751179 L28.4748136,15.017975 C28.4748136,14.4994036 28.2428644,14.0356357 27.8815932,13.7115286 L27.8815932,10.3036893 C27.8815932,10.3036893 28.5851525,5.00011786 21.3561695,5.00011786 C14.126,5.00011786 14.8307458,10.3036893 14.8307458,10.3036893 L14.8307458,13.7115286 C14.4694746,14.0356357 14.2375254,14.4994036 14.2375254,15.017975 L14.2375254,17.3751179 C14.2375254,17.996225 14.5661695,18.5424929 15.0573559,18.85835 C15.6499831,21.4229214 17.2036271,23.267975 17.2036271,23.267975 L17.2036271,25.4218143 C17.2036271,26.2073321 16.7717627,26.9303857 16.0771017,27.3057607 L10.7849831,30.1744036 C9.25625424,31.00235 8.30532203,32.5940107 8.30532203,34.3235643 L8.30532203,36.2322607 L34.4070169,36.2322607 L34.4070169,34.4390643 C34.4070169,32.6488143 33.3884576,31.0117786 31.776678,30.2115286" id="Fill-1"></path>
                <path d="M10.7848644,30.1741089 L14.3121525,28.2630554 C14.2919831,28.2441982 14.3091864,28.2377161 14.3507119,28.2424304 L16.0769831,27.3066446 C16.7716441,26.9300911 17.2035085,26.2082161 17.2035085,25.4221089 L17.2035085,23.2676804 C17.2035085,23.2676804 16.5735085,22.5163411 15.9624915,21.3094839 C15.9624915,21.3088946 15.9618983,21.3083054 15.9618983,21.3077161 C15.8818136,21.1497875 15.8029153,20.9830196 15.7252034,20.8103589 C15.7145254,20.7861982 15.7038475,20.7632161 15.6931695,20.7390554 C15.6142712,20.5605018 15.5371525,20.3760554 15.4641864,20.1827696 C15.4594407,20.1703946 15.4552881,20.1568411 15.4505424,20.1444661 C15.3864746,19.9735732 15.3265593,19.7973768 15.2690169,19.6164661 C15.2535932,19.5669661 15.2381695,19.5180554 15.223339,19.4685554 C15.1634237,19.2693768 15.1070678,19.0666625 15.0584237,18.8568768 C14.5660508,18.5421982 14.2374068,17.9959304 14.2374068,17.3748232 L14.2374068,15.0176804 C14.2374068,14.4991089 14.4693559,14.0353411 14.8306271,13.7112339 L14.8306271,10.3829482 C13.9924068,9.73709107 12.6932542,9.12482321 10.6780847,9.12482321 C5.00511864,9.12482321 4.74588136,13.8391089 4.74588136,13.8391089 L4.74588136,16.7825911 C4.43384746,17.0625018 4.15266102,17.4626268 4.15266102,17.9104839 L4.15266102,19.9464661 C4.15266102,20.4833054 4.43681356,20.9547339 4.8609661,21.2275732 C5.37291525,23.4421089 7.09147458,25.0361268 7.09147458,25.0361268 L7.09147458,26.8965018 C7.09147458,27.5747696 6.71833898,28.1994125 6.11859322,28.5241089 L2.14164407,31.0002875 C0.821728814,31.7156804 0.000118644068,33.0898946 0.000118644068,34.5837339 L0.000118644068,36.2319661 L8.30520339,36.2319661 L8.30520339,34.3232696 C8.30520339,32.5937161 9.25613559,31.0020554 10.7848644,30.1741089" id="Fill-3" opacity="0.200000003"></path>
                <path d="M34.7848644,30.1741089 L38.3121525,28.2630554 C38.2919831,28.2441982 38.3091864,28.2377161 38.3507119,28.2424304 L40.0769831,27.3066446 C40.7716441,26.9300911 41.2035085,26.2082161 41.2035085,25.4221089 L41.2035085,23.2676804 C41.2035085,23.2676804 40.5735085,22.5163411 39.9624915,21.3094839 C39.9624915,21.3088946 39.9618983,21.3083054 39.9618983,21.3077161 C39.8818136,21.1497875 39.8029153,20.9830196 39.7252034,20.8103589 C39.7145254,20.7861982 39.7038475,20.7632161 39.6931695,20.7390554 C39.6142712,20.5605018 39.5371525,20.3760554 39.4641864,20.1827696 C39.4594407,20.1703946 39.4552881,20.1568411 39.4505424,20.1444661 C39.3864746,19.9735732 39.3265593,19.7973768 39.2690169,19.6164661 C39.2535932,19.5669661 39.2381695,19.5180554 39.223339,19.4685554 C39.1634237,19.2693768 39.1070678,19.0666625 39.0584237,18.8568768 C38.5660508,18.5421982 38.2374068,17.9959304 38.2374068,17.3748232 L38.2374068,15.0176804 C38.2374068,14.4991089 38.4693559,14.0353411 38.8306271,13.7112339 L38.8306271,10.3829482 C37.9924068,9.73709107 36.6932542,9.12482321 34.6780847,9.12482321 C29.0051186,9.12482321 28.7458814,13.8391089 28.7458814,13.8391089 L28.7458814,16.7825911 C28.4338475,17.0625018 28.152661,17.4626268 28.152661,17.9104839 L28.152661,19.9464661 C28.152661,20.4833054 28.4368136,20.9547339 28.8609661,21.2275732 C29.3729153,23.4421089 31.0914746,25.0361268 31.0914746,25.0361268 L31.0914746,26.8965018 C31.0914746,27.5747696 30.718339,28.1994125 30.1185932,28.5241089 L26.1416441,31.0002875 C24.8217288,31.7156804 24.0001186,33.0898946 24.0001186,34.5837339 L24.0001186,36.2319661 L32.3052034,36.2319661 L32.3052034,34.3232696 C32.3052034,32.5937161 33.2561356,31.0020554 34.7848644,30.1741089" id="Fill-3-Copy" opacity="0.5" transform="translate(32.601814, 22.678395) scale(-1, 1) translate(-32.601814, -22.678395) "></path>
            </g>
            <g id="new_subscriptions-copy" transform="translate(42.000000, 0.000000)">
                <path d="M35.776678,30.2115286 L30.1096441,27.3971 C29.3782034,27.0329214 28.9154915,26.2898321 28.9154915,25.4766179 L28.9154915,23.267975 C29.0738814,23.0882429 29.2571864,22.8566536 29.4517627,22.583225 C30.2241356,21.5001179 30.8078644,20.3079929 31.2130339,19.0569393 C31.9391356,18.8347786 32.4748136,18.1677071 32.4748136,17.3751179 L32.4748136,15.017975 C32.4748136,14.4994036 32.2428644,14.0356357 31.8815932,13.7115286 L31.8815932,10.3036893 C31.8815932,10.3036893 32.5851525,5.00011786 25.3561695,5.00011786 C18.126,5.00011786 18.8307458,10.3036893 18.8307458,10.3036893 L18.8307458,13.7115286 C18.4694746,14.0356357 18.2375254,14.4994036 18.2375254,15.017975 L18.2375254,17.3751179 C18.2375254,17.996225 18.5661695,18.5424929 19.0573559,18.85835 C19.6499831,21.4229214 21.2036271,23.267975 21.2036271,23.267975 L21.2036271,25.4218143 C21.2036271,26.2073321 20.7717627,26.9303857 20.0771017,27.3057607 L14.7849831,30.1744036 C13.2562542,31.00235 12.305322,32.5940107 12.305322,34.3235643 L12.305322,36.2322607 L38.4070169,36.2322607 L38.4070169,34.4390643 C38.4070169,32.6488143 37.3884576,31.0117786 35.776678,30.2115286" id="Fill-1" fill="#3E3E3E"></path>
                <path d="M14.7848644,30.1741089 L18.3121525,28.2630554 C18.2919831,28.2441982 18.3091864,28.2377161 18.3507119,28.2424304 L20.0769831,27.3066446 C20.7716441,26.9300911 21.2035085,26.2082161 21.2035085,25.4221089 L21.2035085,23.2676804 C21.2035085,23.2676804 20.5735085,22.5163411 19.9624915,21.3094839 C19.9624915,21.3088946 19.9618983,21.3083054 19.9618983,21.3077161 C19.8818136,21.1497875 19.8029153,20.9830196 19.7252034,20.8103589 C19.7145254,20.7861982 19.7038475,20.7632161 19.6931695,20.7390554 C19.6142712,20.5605018 19.5371525,20.3760554 19.4641864,20.1827696 C19.4594407,20.1703946 19.4552881,20.1568411 19.4505424,20.1444661 C19.3864746,19.9735732 19.3265593,19.7973768 19.2690169,19.6164661 C19.2535932,19.5669661 19.2381695,19.5180554 19.223339,19.4685554 C19.1634237,19.2693768 19.1070678,19.0666625 19.0584237,18.8568768 C18.5660508,18.5421982 18.2374068,17.9959304 18.2374068,17.3748232 L18.2374068,15.0176804 C18.2374068,14.4991089 18.4693559,14.0353411 18.8306271,13.7112339 L18.8306271,10.3829482 C17.9924068,9.73709107 16.6932542,9.12482321 14.6780847,9.12482321 C9.00511864,9.12482321 8.74588136,13.8391089 8.74588136,13.8391089 L8.74588136,16.7825911 C8.43384746,17.0625018 8.15266102,17.4626268 8.15266102,17.9104839 L8.15266102,19.9464661 C8.15266102,20.4833054 8.43681356,20.9547339 8.8609661,21.2275732 C9.37291525,23.4421089 11.0914746,25.0361268 11.0914746,25.0361268 L11.0914746,26.8965018 C11.0914746,27.5747696 10.718339,28.1994125 10.1185932,28.5241089 L6.14164407,31.0002875 C4.82172881,31.7156804 4.00011864,33.0898946 4.00011864,34.5837339 L4.00011864,36.2319661 L12.3052034,36.2319661 L12.3052034,34.3232696 C12.3052034,32.5937161 13.2561356,31.0020554 14.7848644,30.1741089" id="Fill-3" fill="#3E3E3E" opacity="0.200000003"></path>
                <path d="M31.8813559,23.8571429 C35.8126271,23.8571429 39,27.023375 39,30.9285714 C39,34.8337679 35.8126271,38 31.8813559,38 C27.9500847,38 24.7627119,34.8337679 24.7627119,30.9285714 C24.7627119,27.023375 27.9500847,23.8571429 31.8813559,23.8571429" id="Fill-5" fill="#21ABF2"></path>
                <path d="M35.440678,30.3392857 L32.4745763,30.3392857 L32.4745763,27.3928571 C32.4745763,27.0675714 32.2088136,26.8035714 31.8813559,26.8035714 C31.5538983,26.8035714 31.2881356,27.0675714 31.2881356,27.3928571 L31.2881356,30.3392857 L28.3220339,30.3392857 C27.9945763,30.3392857 27.7288136,30.6032857 27.7288136,30.9285714 C27.7288136,31.2538571 27.9945763,31.5178571 28.3220339,31.5178571 L31.2881356,31.5178571 L31.2881356,34.4642857 C31.2881356,34.7895714 31.5538983,35.0535714 31.8813559,35.0535714 C32.2088136,35.0535714 32.4745763,34.7895714 32.4745763,34.4642857 L32.4745763,31.5178571 L35.440678,31.5178571 C35.7681356,31.5178571 36.0338983,31.2538571 36.0338983,30.9285714 C36.0338983,30.6032857 35.7681356,30.3392857 35.440678,30.3392857" id="Fill-7" fill="#FFFFFF"></path>
            </g>
            <g id="access-copy" transform="translate(0.000000, 42.000000)">
                <path d="M26.5207467,37.4166667 L11.96768,37.4166667 C10.8803022,37.4166667 9.99976889,36.5270833 9.99976889,35.4304167 L9.99976889,5.56958333 C9.99976889,4.47291667 10.88088,3.58333333 11.96768,3.58333333 L26.5207467,3.58333333 C27.6081244,3.58333333 28.48808,4.47291667 28.48808,5.56958333 L28.48808,35.4298333 C28.4886578,36.5270833 27.6081244,37.4166667 26.5207467,37.4166667" id="Fill-1" fill="#3E3E3E"></path>
                <polygon id="Fill-4" fill="#D4D4D4" points="10 30.4166667 28.4888889 30.4166667 28.4888889 7.08333333 10 7.08333333"></polygon>
                <path d="M19.2443867,32.1666667 C20.2017644,32.1666667 20.97772,32.9500833 20.97772,33.9166667 C20.97772,34.88325 20.2017644,35.6666667 19.2443867,35.6666667 C18.2870089,35.6666667 17.5110533,34.88325 17.5110533,33.9166667 C17.5110533,32.9500833 18.2870089,32.1666667 19.2443867,32.1666667" id="Fill-6" fill="#FAFAFA"></path>
                <path d="M19.2443867,5.91666667 L16.9332756,5.91666667 C16.6137644,5.91666667 16.3554978,5.65591667 16.3554978,5.33333333 C16.3554978,5.01075 16.6137644,4.75 16.9332756,4.75 L19.2443867,4.75 C19.5638978,4.75 19.8221644,5.01075 19.8221644,5.33333333 C19.8221644,5.65591667 19.5638978,5.91666667 19.2443867,5.91666667" id="Fill-7" fill="#FAFAFA"></path>
                <path d="M21.5554978,5.91666667 L20.97772,5.91666667 C20.6582089,5.91666667 20.3999422,5.65591667 20.3999422,5.33333333 C20.3999422,5.01075 20.6582089,4.75 20.97772,4.75 L21.5554978,4.75 C21.8750089,4.75 22.1332756,5.01075 22.1332756,5.33333333 C22.1332756,5.65591667 21.8750089,5.91666667 21.5554978,5.91666667" id="Fill-8" fill="#FAFAFA"></path>
                <path d="M28.7139333,23.98915 C32.5434444,23.98915 35.6472667,27.1228167 35.6472667,30.98915 C35.6472667,34.8549 32.5434444,37.98915 28.7139333,37.98915 C24.885,37.98915 21.7806,34.8549 21.7806,30.98915 C21.7806,27.1228167 24.885,23.98915 28.7139333,23.98915" id="Fill-9" fill="#21ABF2"></path>
                <path d="M32.5106844,27.593975 C32.2477956,27.4096417 31.8884178,27.474975 31.7064178,27.7398083 L28.4731733,32.4298083 L26.1915289,30.5386417 C25.9453956,30.3338917 25.5808178,30.3706417 25.3785956,30.619725 C25.1757956,30.8688083 25.2116178,31.2363083 25.4589067,31.440475 L28.2241511,33.7318083 C28.3281511,33.8181417 28.4575733,33.8648083 28.5904622,33.8648083 C28.6164622,33.8648083 28.6436178,33.8630583 28.6701956,33.8595583 C28.8290844,33.8368083 28.9723733,33.748725 29.0648178,33.6151417 L32.6551289,28.4065583 C32.8371289,28.1411417 32.7724178,27.7771417 32.5106844,27.593975" id="Fill-10" fill="#FFFFFF"></path>
            </g>
            <g id="interaction-copy" transform="translate(42.000000, 42.000000)" fill="#3E3E3E">
                <path d="M12.4582754,7.47697938 C12.4582754,5.95213402 13.6698446,4.71558763 15.1651985,4.71558763 C16.6605523,4.71558763 17.8724754,5.95213402 17.8724754,7.47697938 C17.8724754,8.00486598 17.7245677,8.49630928 17.4726292,8.91558763 C16.7033677,7.3795567 16.2069215,5.72661856 14.8053369,6.15239175 C14.40726,6.27326804 14.0031677,6.68136082 13.9391215,7.35105155 C13.8718908,8.05646392 14.06686,9.02058763 14.3534754,10.111 C13.2554908,9.7595567 12.4582754,8.71316495 12.4582754,7.47697938 M32.5224138,33.0580103 C31.4247831,30.9457423 31.6590292,31.510433 31.4598138,30.4662062 C31.28006,29.5266186 31.3709985,28.4372887 31.3207523,27.3111546 C31.2453831,25.6087835 31.0893369,23.818732 31.0893369,22.3180619 C31.0893369,20.9999691 30.5500754,20.5803299 30.2581523,19.727701 C29.8342446,18.4871856 29.4938446,17.3520309 28.9191985,16.7602784 C28.22106,16.0422371 27.4571062,16.4979588 27.4571062,16.4979588 C26.9528754,15.1690412 26.8208908,14.8309485 26.2908292,14.1742474 C25.7819985,13.5424433 25.0127369,13.6275979 25.0127369,13.6275979 C25.0127369,13.6275979 24.6365985,11.7199175 23.7756908,10.7568763 C23.3167523,10.2430619 22.3695062,10.2488351 22.0138908,10.4249175 C21.7559369,10.5526495 21.4109369,10.9621856 21.0493062,11.231 C20.3539985,11.7491443 19.5153831,12.7190412 19.5153831,12.7190412 C19.5153831,12.7190412 19.3731369,12.2766701 18.9771831,11.4871856 C18.7093215,10.9535258 18.2500292,10.2870825 17.8508908,9.60945361 C18.3016908,9.0202268 18.5727369,8.28125773 18.5727369,7.47589691 C18.5727369,5.55594845 17.0465985,4.00007216 15.1644908,4.00007216 C13.2820292,4.00007216 11.7565985,5.55594845 11.7565985,7.47589691 C11.7565985,9.18656701 12.9695831,10.6053299 14.5661369,10.8943505 C14.62346,11.0978557 14.6825523,11.3046082 14.7423523,11.5138866 C14.9811985,12.3488351 15.3810446,13.4424948 15.7118908,14.3102784 C16.1545523,15.4692474 16.5267985,16.4156907 16.7387523,17.6338351 C16.8937369,18.5268763 16.8024446,19.5483711 16.7645831,20.4017216 C16.7323831,21.1269794 16.6803677,21.8251753 16.5979215,22.3981649 C16.4853985,23.1818763 16.2423062,23.7303299 16.1120908,24.0832165 C16.0151369,24.3458969 16.0317677,24.5674433 16.0317677,24.5674433 C16.0317677,24.5674433 15.8530754,24.5638351 15.6404138,24.6352784 C15.4273985,24.7067216 15.2932908,24.8885773 15.2932908,24.8885773 L14.9405062,24.6464639 C14.9405062,24.6464639 15.0066754,24.5154845 14.9405062,24.2823918 C14.8683215,24.0272887 14.7423523,23.668268 14.5640138,23.1880103 C14.4911215,22.9920825 14.4221215,22.6020309 14.3651523,22.4172887 C14.2154754,21.9294536 14.0180292,21.7483196 14.0180292,21.7483196 C14.0180292,21.7483196 14.2225523,21.0775464 13.9483215,20.351567 C13.6606446,19.5909485 13.0283215,18.5680103 12.3255831,17.8900206 C11.7463369,17.3307423 11.2743062,17.1846082 10.7736138,17.2621856 C10.1504908,17.3585258 9.91199846,18.0949691 10.0284138,18.8700206 C10.0988292,19.338732 10.3033523,19.9690928 10.3514754,20.2934742 C10.4671831,21.0674433 10.0485831,21.982134 10.0641523,22.5161546 C10.0843215,23.207134 10.4371062,23.5906907 10.7608754,25.049866 C10.8762292,25.5708969 11.21026,26.1417216 11.3631215,26.7388866 C11.5895831,27.6221856 11.7286446,28.4643505 11.8294908,28.6765155 C12.3630908,29.8033711 14.4812138,31.2178041 16.4485985,33.0583711 C17.5568446,34.094299 18.8681985,34.0986289 19.7733369,35.0353299 C20.3285215,35.6086804 20.6342446,36.5688351 21.20606,37.437701 C23.5768292,41.0383711 30.5224754,37.5203299 32.3476138,34.8513093 C32.7817831,34.2187835 32.6929677,33.3870825 32.5224138,33.0580103" id="Fill-1"></path>
            </g>
        </g>
    </g>
</svg>